<svg xmlns="http://www.w3.org/2000/svg" viewBox="0 0 200 200" width="200" height="200" shape-rendering="crispEdges">
<rect x="84" y="12" width="8" height="4" fill="#f0c95a"/>
<rect x="112" y="12" width="4" height="4" fill="#fff2bf"/>
<rect x="116" y="12" width="4" height="4" fill="#f0c95a"/>
<rect x="72" y="16" width="16" height="4" fill="#fff2bf"/>
<rect x="116" y="16" width="16" height="4" fill="#f0c95a"/>
<rect x="68" y="20" width="4" height="4" fill="#f0c95a"/>
<rect x="72" y="20" width="8" height="4" fill="#fff2bf"/>
<rect x="84" y="20" width="4" height="4" fill="#fff2bf" fill-opacity="0.18"/>
<rect x="116" y="20" width="4" height="4" fill="#fff2bf" fill-opacity="0.18"/>
<rect x="124" y="20" width="4" height="4" fill="#f0c95a"/>
<rect x="128" y="20" width="8" height="4" fill="#fff2bf"/>
<rect x="64" y="24" width="8" height="4" fill="#f0c95a"/>
<rect x="80" y="24" width="4" height="4" fill="#fff2bf" fill-opacity="0.18"/>
<rect x="88" y="24" width="4" height="4" fill="#fff2bf" fill-opacity="0.18"/>
<rect x="112" y="24" width="4" height="4" fill="#fff2bf" fill-opacity="0.18"/>
<rect x="120" y="24" width="4" height="4" fill="#fff2bf" fill-opacity="0.18"/>
<rect x="132" y="24" width="8" height="4" fill="#fff2bf"/>
<rect x="60" y="28" width="8" height="4" fill="#f0c95a"/>
<rect x="68" y="28" width="4" height="4" fill="#fff2bf" fill-opacity="0.18"/>
<rect x="76" y="28" width="4" height="4" fill="#fff2bf" fill-opacity="0.18"/>
<rect x="84" y="28" width="4" height="4" fill="#fff2bf" fill-opacity="0.18"/>
<rect x="92" y="28" width="4" height="4" fill="#fff2bf" fill-opacity="0.18"/>
<rect x="108" y="28" width="4" height="4" fill="#fff2bf" fill-opacity="0.18"/>
<rect x="116" y="28" width="4" height="4" fill="#fff2bf" fill-opacity="0.18"/>
<rect x="124" y="28" width="4" height="4" fill="#fff2bf" fill-opacity="0.18"/>
<rect x="132" y="28" width="4" height="4" fill="#fff2bf" fill-opacity="0.18"/>
<rect x="136" y="28" width="4" height="4" fill="#fff2bf"/>
<rect x="140" y="28" width="4" height="4" fill="#f0c95a"/>
<rect x="56" y="32" width="8" height="4" fill="#fff2bf"/>
<rect x="64" y="32" width="4" height="4" fill="#fff2bf" fill-opacity="0.18"/>
<rect x="72" y="32" width="4" height="4" fill="#fff2bf" fill-opacity="0.18"/>
<rect x="80" y="32" width="4" height="4" fill="#fff2bf" fill-opacity="0.18"/>
<rect x="88" y="32" width="4" height="4" fill="#fff2bf" fill-opacity="0.18"/>
<rect x="112" y="32" width="4" height="4" fill="#fff2bf" fill-opacity="0.18"/>
<rect x="120" y="32" width="4" height="4" fill="#fff2bf" fill-opacity="0.18"/>
<rect x="128" y="32" width="4" height="4" fill="#fff2bf" fill-opacity="0.18"/>
<rect x="136" y="32" width="4" height="4" fill="#fff2bf" fill-opacity="0.18"/>
<rect x="140" y="32" width="8" height="4" fill="#f0c95a"/>
<rect x="56" y="36" width="4" height="4" fill="#fff2bf"/>
<rect x="60" y="36" width="4" height="4" fill="#fff2bf" fill-opacity="0.18"/>
<rect x="68" y="36" width="4" height="4" fill="#fff2bf" fill-opacity="0.18"/>
<rect x="76" y="36" width="4" height="4" fill="#fff2bf" fill-opacity="0.18"/>
<rect x="84" y="36" width="4" height="4" fill="#fff2bf" fill-opacity="0.18"/>
<rect x="116" y="36" width="4" height="4" fill="#fff2bf" fill-opacity="0.18"/>
<rect x="124" y="36" width="4" height="4" fill="#fff2bf" fill-opacity="0.18"/>
<rect x="132" y="36" width="4" height="4" fill="#fff2bf" fill-opacity="0.18"/>
<rect x="140" y="36" width="4" height="4" fill="#fff2bf" fill-opacity="0.18"/>
<rect x="144" y="36" width="4" height="4" fill="#f0c95a"/>
<rect x="64" y="40" width="4" height="4" fill="#fff2bf" fill-opacity="0.18"/>
<rect x="72" y="40" width="4" height="4" fill="#fff2bf" fill-opacity="0.18"/>
<rect x="80" y="40" width="4" height="4" fill="#fff2bf" fill-opacity="0.18"/>
<rect x="120" y="40" width="4" height="4" fill="#fff2bf" fill-opacity="0.18"/>
<rect x="128" y="40" width="4" height="4" fill="#fff2bf" fill-opacity="0.18"/>
<rect x="136" y="40" width="4" height="4" fill="#fff2bf" fill-opacity="0.18"/>
<rect x="76" y="44" width="4" height="4" fill="#fff2bf" fill-opacity="0.18"/>
<rect x="124" y="44" width="4" height="4" fill="#fff2bf" fill-opacity="0.18"/>
<rect x="48" y="48" width="4" height="4" fill="#f0c95a"/>
<rect x="152" y="48" width="4" height="4" fill="#fff2bf"/>
<rect x="44" y="52" width="8" height="4" fill="#f0c95a"/>
<rect x="52" y="52" width="4" height="4" fill="#fff2bf" fill-opacity="0.18"/>
<rect x="60" y="52" width="4" height="4" fill="#fff2bf" fill-opacity="0.18"/>
<rect x="140" y="52" width="4" height="4" fill="#fff2bf" fill-opacity="0.18"/>
<rect x="148" y="52" width="4" height="4" fill="#fff2bf" fill-opacity="0.18"/>
<rect x="152" y="52" width="4" height="4" fill="#fff2bf"/>
<rect x="156" y="52" width="4" height="4" fill="#f0c95a"/>
<rect x="44" y="56" width="8" height="4" fill="#fff2bf"/>
<rect x="56" y="56" width="4" height="4" fill="#fff2bf" fill-opacity="0.18"/>
<rect x="64" y="56" width="4" height="4" fill="#fff2bf" fill-opacity="0.18"/>
<rect x="136" y="56" width="4" height="4" fill="#fff2bf" fill-opacity="0.18"/>
<rect x="144" y="56" width="4" height="4" fill="#fff2bf" fill-opacity="0.18"/>
<rect x="152" y="56" width="8" height="4" fill="#f0c95a"/>
<rect x="44" y="60" width="4" height="4" fill="#fff2bf"/>
<rect x="52" y="60" width="4" height="4" fill="#fff2bf" fill-opacity="0.18"/>
<rect x="60" y="60" width="4" height="4" fill="#fff2bf" fill-opacity="0.18"/>
<rect x="68" y="60" width="4" height="4" fill="#fff2bf" fill-opacity="0.18"/>
<rect x="132" y="60" width="4" height="4" fill="#fff2bf" fill-opacity="0.18"/>
<rect x="140" y="60" width="4" height="4" fill="#fff2bf" fill-opacity="0.18"/>
<rect x="148" y="60" width="4" height="4" fill="#fff2bf" fill-opacity="0.18"/>
<rect x="156" y="60" width="4" height="4" fill="#f0c95a"/>
<rect x="44" y="64" width="4" height="4" fill="#fff2bf"/>
<rect x="56" y="64" width="4" height="4" fill="#fff2bf" fill-opacity="0.18"/>
<rect x="64" y="64" width="4" height="4" fill="#fff2bf" fill-opacity="0.18"/>
<rect x="136" y="64" width="4" height="4" fill="#fff2bf" fill-opacity="0.18"/>
<rect x="144" y="64" width="4" height="4" fill="#fff2bf" fill-opacity="0.18"/>
<rect x="156" y="64" width="4" height="4" fill="#f0c95a"/>
<rect x="44" y="68" width="4" height="4" fill="#fff2bf"/>
<rect x="52" y="68" width="4" height="4" fill="#fff2bf" fill-opacity="0.18"/>
<rect x="60" y="68" width="4" height="4" fill="#fff2bf" fill-opacity="0.18"/>
<rect x="68" y="68" width="4" height="4" fill="#fff2bf" fill-opacity="0.18"/>
<rect x="132" y="68" width="4" height="4" fill="#fff2bf" fill-opacity="0.18"/>
<rect x="140" y="68" width="4" height="4" fill="#fff2bf" fill-opacity="0.18"/>
<rect x="148" y="68" width="4" height="4" fill="#fff2bf" fill-opacity="0.18"/>
<rect x="156" y="68" width="4" height="4" fill="#fff2bf"/>
<rect x="44" y="72" width="4" height="4" fill="#f0c95a"/>
<rect x="56" y="72" width="4" height="4" fill="#fff2bf" fill-opacity="0.18"/>
<rect x="64" y="72" width="4" height="4" fill="#fff2bf" fill-opacity="0.18"/>
<rect x="136" y="72" width="4" height="4" fill="#fff2bf" fill-opacity="0.18"/>
<rect x="144" y="72" width="4" height="4" fill="#fff2bf" fill-opacity="0.18"/>
<rect x="156" y="72" width="4" height="4" fill="#fff2bf"/>
<rect x="44" y="76" width="4" height="4" fill="#f0c95a"/>
<rect x="52" y="76" width="4" height="4" fill="#fff2bf" fill-opacity="0.18"/>
<rect x="60" y="76" width="4" height="4" fill="#fff2bf" fill-opacity="0.18"/>
<rect x="68" y="76" width="4" height="4" fill="#fff2bf" fill-opacity="0.18"/>
<rect x="132" y="76" width="4" height="4" fill="#fff2bf" fill-opacity="0.18"/>
<rect x="140" y="76" width="4" height="4" fill="#fff2bf" fill-opacity="0.18"/>
<rect x="148" y="76" width="4" height="4" fill="#fff2bf" fill-opacity="0.18"/>
<rect x="156" y="76" width="4" height="4" fill="#fff2bf"/>
<rect x="44" y="80" width="8" height="4" fill="#f0c95a"/>
<rect x="56" y="80" width="4" height="4" fill="#fff2bf" fill-opacity="0.18"/>
<rect x="64" y="80" width="4" height="4" fill="#fff2bf" fill-opacity="0.18"/>
<rect x="136" y="80" width="4" height="4" fill="#fff2bf" fill-opacity="0.18"/>
<rect x="144" y="80" width="4" height="4" fill="#fff2bf" fill-opacity="0.18"/>
<rect x="152" y="80" width="8" height="4" fill="#fff2bf"/>
<rect x="44" y="84" width="8" height="4" fill="#fff2bf"/>
<rect x="52" y="84" width="4" height="4" fill="#fff2bf" fill-opacity="0.18"/>
<rect x="60" y="84" width="4" height="4" fill="#fff2bf" fill-opacity="0.18"/>
<rect x="68" y="84" width="4" height="4" fill="#fff2bf" fill-opacity="0.18"/>
<rect x="132" y="84" width="4" height="4" fill="#fff2bf" fill-opacity="0.18"/>
<rect x="140" y="84" width="4" height="4" fill="#fff2bf" fill-opacity="0.18"/>
<rect x="148" y="84" width="4" height="4" fill="#fff2bf" fill-opacity="0.18"/>
<rect x="152" y="84" width="8" height="4" fill="#f0c95a"/>
<rect x="48" y="88" width="4" height="4" fill="#fff2bf"/>
<rect x="56" y="88" width="4" height="4" fill="#fff2bf" fill-opacity="0.18"/>
<rect x="64" y="88" width="4" height="4" fill="#fff2bf" fill-opacity="0.18"/>
<rect x="136" y="88" width="4" height="4" fill="#fff2bf" fill-opacity="0.18"/>
<rect x="144" y="88" width="4" height="4" fill="#fff2bf" fill-opacity="0.18"/>
<rect x="152" y="88" width="4" height="4" fill="#f0c95a"/>
<rect x="48" y="92" width="8" height="4" fill="#fff2bf"/>
<rect x="60" y="92" width="4" height="4" fill="#fff2bf" fill-opacity="0.18"/>
<rect x="68" y="92" width="4" height="4" fill="#fff2bf" fill-opacity="0.18"/>
<rect x="132" y="92" width="4" height="4" fill="#fff2bf" fill-opacity="0.18"/>
<rect x="140" y="92" width="4" height="4" fill="#fff2bf" fill-opacity="0.18"/>
<rect x="148" y="92" width="8" height="4" fill="#f0c95a"/>
<rect x="48" y="96" width="4" height="4" fill="#fff2bf"/>
<rect x="52" y="96" width="4" height="4" fill="#f0c95a"/>
<rect x="64" y="96" width="4" height="4" fill="#fff2bf" fill-opacity="0.18"/>
<rect x="72" y="96" width="4" height="4" fill="#fff2bf" fill-opacity="0.18"/>
<rect x="128" y="96" width="4" height="4" fill="#fff2bf" fill-opacity="0.18"/>
<rect x="136" y="96" width="4" height="4" fill="#fff2bf" fill-opacity="0.18"/>
<rect x="148" y="96" width="4" height="4" fill="#fff2bf"/>
<rect x="152" y="96" width="4" height="4" fill="#f0c95a"/>
<rect x="52" y="100" width="8" height="4" fill="#f0c95a"/>
<rect x="60" y="100" width="4" height="4" fill="#fff2bf" fill-opacity="0.18"/>
<rect x="68" y="100" width="4" height="4" fill="#fff2bf" fill-opacity="0.18"/>
<rect x="76" y="100" width="4" height="4" fill="#fff2bf" fill-opacity="0.18"/>
<rect x="124" y="100" width="4" height="4" fill="#fff2bf" fill-opacity="0.18"/>
<rect x="132" y="100" width="4" height="4" fill="#fff2bf" fill-opacity="0.18"/>
<rect x="140" y="100" width="4" height="4" fill="#fff2bf" fill-opacity="0.18"/>
<rect x="144" y="100" width="8" height="4" fill="#fff2bf"/>
<rect x="56" y="104" width="8" height="4" fill="#f0c95a"/>
<rect x="64" y="104" width="4" height="4" fill="#fff2bf" fill-opacity="0.18"/>
<rect x="72" y="104" width="4" height="4" fill="#fff2bf" fill-opacity="0.18"/>
<rect x="80" y="104" width="4" height="4" fill="#fff2bf" fill-opacity="0.18"/>
<rect x="120" y="104" width="4" height="4" fill="#fff2bf" fill-opacity="0.18"/>
<rect x="128" y="104" width="4" height="4" fill="#fff2bf" fill-opacity="0.18"/>
<rect x="136" y="104" width="4" height="4" fill="#fff2bf" fill-opacity="0.18"/>
<rect x="140" y="104" width="8" height="4" fill="#fff2bf"/>
<rect x="60" y="108" width="4" height="4" fill="#f0c95a"/>
<rect x="64" y="108" width="4" height="4" fill="#fff2bf"/>
<rect x="68" y="108" width="4" height="4" fill="#fff2bf" fill-opacity="0.18"/>
<rect x="132" y="108" width="4" height="4" fill="#fff2bf" fill-opacity="0.18"/>
<rect x="136" y="108" width="8" height="4" fill="#f0c95a"/>

<rect x="176" y="0" width="4" height="4" fill="#12141c"/>
<rect x="180" y="0" width="4" height="4" fill="#e8f4ff"/>
<rect x="184" y="0" width="4" height="4" fill="#12141c"/>
<rect x="172" y="4" width="4" height="4" fill="#12141c"/>
<rect x="176" y="4" width="12" height="4" fill="#e8f4ff"/>
<rect x="188" y="4" width="4" height="4" fill="#12141c"/>
<rect x="100" y="8" width="4" height="4" fill="#12141c"/>
<rect x="172" y="8" width="4" height="4" fill="#12141c"/>
<rect x="176" y="8" width="12" height="4" fill="#e8f4ff"/>
<rect x="188" y="8" width="4" height="4" fill="#12141c"/>
<rect x="92" y="12" width="8" height="4" fill="#12141c"/>
<rect x="100" y="12" width="4" height="4" fill="#d0453f"/>
<rect x="104" y="12" width="8" height="4" fill="#12141c"/>
<rect x="176" y="12" width="4" height="4" fill="#12141c"/>
<rect x="180" y="12" width="4" height="4" fill="#e8f4ff"/>
<rect x="184" y="12" width="4" height="4" fill="#12141c"/>
<rect x="88" y="16" width="4" height="4" fill="#12141c"/>
<rect x="92" y="16" width="4" height="4" fill="#f0c95a"/>
<rect x="96" y="16" width="4" height="4" fill="#12141c"/>
<rect x="100" y="16" width="4" height="4" fill="#d0453f"/>
<rect x="104" y="16" width="4" height="4" fill="#12141c"/>
<rect x="108" y="16" width="4" height="4" fill="#f0c95a"/>
<rect x="112" y="16" width="4" height="4" fill="#12141c"/>
<rect x="176" y="16" width="4" height="4" fill="#12141c"/>
<rect x="180" y="16" width="4" height="4" fill="#c8b080"/>
<rect x="184" y="16" width="4" height="4" fill="#12141c"/>
<rect x="92" y="20" width="4" height="4" fill="#12141c"/>
<rect x="96" y="20" width="4" height="4" fill="#f0c95a"/>
<rect x="100" y="20" width="4" height="4" fill="#12141c"/>
<rect x="104" y="20" width="4" height="4" fill="#f0c95a"/>
<rect x="108" y="20" width="4" height="4" fill="#12141c"/>
<rect x="172" y="20" width="4" height="4" fill="#12141c"/>
<rect x="176" y="20" width="4" height="4" fill="#d0453f"/>
<rect x="180" y="20" width="4" height="4" fill="#c8b080"/>
<rect x="184" y="20" width="4" height="4" fill="#d0453f"/>
<rect x="188" y="20" width="4" height="4" fill="#12141c"/>
<rect x="92" y="24" width="4" height="4" fill="#12141c"/>
<rect x="96" y="24" width="4" height="4" fill="#f0c95a"/>
<rect x="100" y="24" width="4" height="4" fill="#12141c"/>
<rect x="104" y="24" width="4" height="4" fill="#f0c95a"/>
<rect x="108" y="24" width="4" height="4" fill="#12141c"/>
<rect x="172" y="24" width="4" height="4" fill="#12141c"/>
<rect x="176" y="24" width="4" height="4" fill="#d0453f"/>
<rect x="180" y="24" width="4" height="4" fill="#c8b080"/>
<rect x="184" y="24" width="4" height="4" fill="#d0453f"/>
<rect x="188" y="24" width="4" height="4" fill="#12141c"/>
<rect x="96" y="28" width="4" height="4" fill="#12141c"/>
<rect x="100" y="28" width="4" height="4" fill="#f0c95a"/>
<rect x="104" y="28" width="4" height="4" fill="#12141c"/>
<rect x="176" y="28" width="4" height="4" fill="#12141c"/>
<rect x="180" y="28" width="4" height="4" fill="#c8b080"/>
<rect x="184" y="28" width="4" height="4" fill="#12141c"/>
<rect x="96" y="32" width="4" height="4" fill="#12141c"/>
<rect x="100" y="32" width="4" height="4" fill="#f0c95a"/>
<rect x="104" y="32" width="4" height="4" fill="#12141c"/>
<rect x="176" y="32" width="4" height="4" fill="#12141c"/>
<rect x="180" y="32" width="4" height="4" fill="#c8b080"/>
<rect x="184" y="32" width="4" height="4" fill="#12141c"/>
<rect x="48" y="36" width="8" height="4" fill="#12141c"/>
<rect x="88" y="36" width="28" height="4" fill="#12141c"/>
<rect x="148" y="36" width="8" height="4" fill="#12141c"/>
<rect x="176" y="36" width="4" height="4" fill="#12141c"/>
<rect x="180" y="36" width="4" height="4" fill="#c8b080"/>
<rect x="184" y="36" width="4" height="4" fill="#12141c"/>
<rect x="44" y="40" width="4" height="4" fill="#12141c"/>
<rect x="48" y="40" width="8" height="4" fill="#ffffff"/>
<rect x="56" y="40" width="8" height="4" fill="#12141c"/>
<rect x="84" y="40" width="4" height="4" fill="#12141c"/>
<rect x="88" y="40" width="20" height="4" fill="#d8dce8"/>
<rect x="108" y="40" width="8" height="4" fill="#a8b0c4"/>
<rect x="116" y="40" width="4" height="4" fill="#12141c"/>
<rect x="140" y="40" width="8" height="4" fill="#12141c"/>
<rect x="148" y="40" width="8" height="4" fill="#ffffff"/>
<rect x="156" y="40" width="4" height="4" fill="#12141c"/>
<rect x="176" y="40" width="4" height="4" fill="#12141c"/>
<rect x="180" y="40" width="4" height="4" fill="#c8b080"/>
<rect x="184" y="40" width="4" height="4" fill="#12141c"/>
<rect x="48" y="44" width="8" height="4" fill="#12141c"/>
<rect x="56" y="44" width="8" height="4" fill="#ffffff"/>
<rect x="64" y="44" width="8" height="4" fill="#12141c"/>
<rect x="80" y="44" width="4" height="4" fill="#12141c"/>
<rect x="84" y="44" width="24" height="4" fill="#d8dce8"/>
<rect x="108" y="44" width="12" height="4" fill="#a8b0c4"/>
<rect x="120" y="44" width="4" height="4" fill="#12141c"/>
<rect x="132" y="44" width="8" height="4" fill="#12141c"/>
<rect x="140" y="44" width="8" height="4" fill="#ffffff"/>
<rect x="148" y="44" width="8" height="4" fill="#12141c"/>
<rect x="176" y="44" width="4" height="4" fill="#12141c"/>
<rect x="180" y="44" width="4" height="4" fill="#c8b080"/>
<rect x="184" y="44" width="4" height="4" fill="#12141c"/>
<rect x="56" y="48" width="8" height="4" fill="#12141c"/>
<rect x="64" y="48" width="8" height="4" fill="#ffffff"/>
<rect x="72" y="48" width="8" height="4" fill="#12141c"/>
<rect x="80" y="48" width="28" height="4" fill="#d8dce8"/>
<rect x="108" y="48" width="16" height="4" fill="#a8b0c4"/>
<rect x="124" y="48" width="8" height="4" fill="#12141c"/>
<rect x="132" y="48" width="8" height="4" fill="#ffffff"/>
<rect x="140" y="48" width="8" height="4" fill="#12141c"/>
<rect x="176" y="48" width="4" height="4" fill="#12141c"/>
<rect x="180" y="48" width="4" height="4" fill="#c8b080"/>
<rect x="184" y="48" width="4" height="4" fill="#12141c"/>
<rect x="64" y="52" width="8" height="4" fill="#12141c"/>
<rect x="76" y="52" width="4" height="4" fill="#12141c"/>
<rect x="80" y="52" width="28" height="4" fill="#d8dce8"/>
<rect x="108" y="52" width="16" height="4" fill="#a8b0c4"/>
<rect x="124" y="52" width="4" height="4" fill="#12141c"/>
<rect x="132" y="52" width="8" height="4" fill="#12141c"/>
<rect x="176" y="52" width="4" height="4" fill="#12141c"/>
<rect x="180" y="52" width="4" height="4" fill="#c8b080"/>
<rect x="184" y="52" width="4" height="4" fill="#12141c"/>
<rect x="72" y="56" width="4" height="4" fill="#12141c"/>
<rect x="76" y="56" width="32" height="4" fill="#d8dce8"/>
<rect x="108" y="56" width="20" height="4" fill="#a8b0c4"/>
<rect x="128" y="56" width="4" height="4" fill="#12141c"/>
<rect x="176" y="56" width="4" height="4" fill="#12141c"/>
<rect x="180" y="56" width="4" height="4" fill="#c8b080"/>
<rect x="184" y="56" width="4" height="4" fill="#12141c"/>
<rect x="72" y="60" width="4" height="4" fill="#12141c"/>
<rect x="76" y="60" width="16" height="4" fill="#d8dce8"/>
<rect x="92" y="60" width="20" height="4" fill="#2a3048"/>
<rect x="112" y="60" width="16" height="4" fill="#a8b0c4"/>
<rect x="128" y="60" width="4" height="4" fill="#12141c"/>
<rect x="176" y="60" width="4" height="4" fill="#12141c"/>
<rect x="180" y="60" width="4" height="4" fill="#c8b080"/>
<rect x="184" y="60" width="4" height="4" fill="#12141c"/>
<rect x="72" y="64" width="4" height="4" fill="#12141c"/>
<rect x="76" y="64" width="12" height="4" fill="#d8dce8"/>
<rect x="88" y="64" width="28" height="4" fill="#2a3048"/>
<rect x="116" y="64" width="12" height="4" fill="#a8b0c4"/>
<rect x="128" y="64" width="4" height="4" fill="#12141c"/>
<rect x="176" y="64" width="4" height="4" fill="#12141c"/>
<rect x="180" y="64" width="4" height="4" fill="#c8b080"/>
<rect x="184" y="64" width="4" height="4" fill="#12141c"/>
<rect x="72" y="68" width="4" height="4" fill="#12141c"/>
<rect x="76" y="68" width="8" height="4" fill="#d8dce8"/>
<rect x="84" y="68" width="36" height="4" fill="#2a3048"/>
<rect x="120" y="68" width="8" height="4" fill="#a8b0c4"/>
<rect x="128" y="68" width="4" height="4" fill="#12141c"/>
<rect x="176" y="68" width="4" height="4" fill="#12141c"/>
<rect x="180" y="68" width="4" height="4" fill="#c8b080"/>
<rect x="184" y="68" width="4" height="4" fill="#12141c"/>
<rect x="72" y="72" width="4" height="4" fill="#12141c"/>
<rect x="76" y="72" width="8" height="4" fill="#d8dce8"/>
<rect x="84" y="72" width="36" height="4" fill="#2a3048"/>
<rect x="120" y="72" width="8" height="4" fill="#a8b0c4"/>
<rect x="128" y="72" width="4" height="4" fill="#12141c"/>
<rect x="176" y="72" width="4" height="4" fill="#12141c"/>
<rect x="180" y="72" width="4" height="4" fill="#c8b080"/>
<rect x="184" y="72" width="4" height="4" fill="#12141c"/>
<rect x="72" y="76" width="4" height="4" fill="#12141c"/>
<rect x="76" y="76" width="8" height="4" fill="#d8dce8"/>
<rect x="84" y="76" width="4" height="4" fill="#2a3048"/>
<rect x="88" y="76" width="8" height="4" fill="#9fe8ff"/>
<rect x="96" y="76" width="12" height="4" fill="#2a3048"/>
<rect x="108" y="76" width="8" height="4" fill="#9fe8ff"/>
<rect x="116" y="76" width="4" height="4" fill="#2a3048"/>
<rect x="120" y="76" width="8" height="4" fill="#a8b0c4"/>
<rect x="128" y="76" width="4" height="4" fill="#12141c"/>
<rect x="176" y="76" width="4" height="4" fill="#12141c"/>
<rect x="180" y="76" width="4" height="4" fill="#c8b080"/>
<rect x="184" y="76" width="4" height="4" fill="#12141c"/>
<rect x="72" y="80" width="4" height="4" fill="#12141c"/>
<rect x="76" y="80" width="8" height="4" fill="#d8dce8"/>
<rect x="84" y="80" width="36" height="4" fill="#2a3048"/>
<rect x="120" y="80" width="8" height="4" fill="#a8b0c4"/>
<rect x="128" y="80" width="4" height="4" fill="#12141c"/>
<rect x="176" y="80" width="4" height="4" fill="#12141c"/>
<rect x="180" y="80" width="4" height="4" fill="#c8b080"/>
<rect x="184" y="80" width="4" height="4" fill="#12141c"/>
<rect x="72" y="84" width="4" height="4" fill="#12141c"/>
<rect x="76" y="84" width="8" height="4" fill="#d8dce8"/>
<rect x="84" y="84" width="36" height="4" fill="#2a3048"/>
<rect x="120" y="84" width="8" height="4" fill="#a8b0c4"/>
<rect x="128" y="84" width="4" height="4" fill="#12141c"/>
<rect x="176" y="84" width="4" height="4" fill="#12141c"/>
<rect x="180" y="84" width="4" height="4" fill="#c8b080"/>
<rect x="184" y="84" width="4" height="4" fill="#12141c"/>
<rect x="72" y="88" width="4" height="4" fill="#12141c"/>
<rect x="76" y="88" width="12" height="4" fill="#d8dce8"/>
<rect x="88" y="88" width="28" height="4" fill="#2a3048"/>
<rect x="116" y="88" width="12" height="4" fill="#a8b0c4"/>
<rect x="128" y="88" width="4" height="4" fill="#12141c"/>
<rect x="176" y="88" width="4" height="4" fill="#12141c"/>
<rect x="180" y="88" width="4" height="4" fill="#c8b080"/>
<rect x="184" y="88" width="4" height="4" fill="#12141c"/>
<rect x="76" y="92" width="4" height="4" fill="#12141c"/>
<rect x="80" y="92" width="28" height="4" fill="#d8dce8"/>
<rect x="108" y="92" width="16" height="4" fill="#a8b0c4"/>
<rect x="124" y="92" width="4" height="4" fill="#12141c"/>
<rect x="176" y="92" width="4" height="4" fill="#12141c"/>
<rect x="180" y="92" width="4" height="4" fill="#c8b080"/>
<rect x="184" y="92" width="4" height="4" fill="#12141c"/>
<rect x="76" y="96" width="4" height="4" fill="#12141c"/>
<rect x="80" y="96" width="28" height="4" fill="#d8dce8"/>
<rect x="108" y="96" width="16" height="4" fill="#a8b0c4"/>
<rect x="124" y="96" width="4" height="4" fill="#12141c"/>
<rect x="176" y="96" width="4" height="4" fill="#12141c"/>
<rect x="180" y="96" width="4" height="4" fill="#c8b080"/>
<rect x="184" y="96" width="4" height="4" fill="#12141c"/>
<rect x="80" y="100" width="4" height="4" fill="#12141c"/>
<rect x="84" y="100" width="24" height="4" fill="#d8dce8"/>
<rect x="108" y="100" width="12" height="4" fill="#a8b0c4"/>
<rect x="120" y="100" width="4" height="4" fill="#12141c"/>
<rect x="176" y="100" width="4" height="4" fill="#12141c"/>
<rect x="180" y="100" width="4" height="4" fill="#c8b080"/>
<rect x="184" y="100" width="4" height="4" fill="#12141c"/>
<rect x="84" y="104" width="4" height="4" fill="#12141c"/>
<rect x="88" y="104" width="20" height="4" fill="#d8dce8"/>
<rect x="108" y="104" width="8" height="4" fill="#a8b0c4"/>
<rect x="116" y="104" width="4" height="4" fill="#12141c"/>
<rect x="176" y="104" width="4" height="4" fill="#12141c"/>
<rect x="180" y="104" width="4" height="4" fill="#c8b080"/>
<rect x="184" y="104" width="4" height="4" fill="#12141c"/>
<rect x="72" y="108" width="12" height="4" fill="#12141c"/>
<rect x="84" y="108" width="28" height="4" fill="#e8ecf4"/>
<rect x="112" y="108" width="4" height="4" fill="#b8c4d8"/>
<rect x="116" y="108" width="12" height="4" fill="#12141c"/>
<rect x="176" y="108" width="4" height="4" fill="#12141c"/>
<rect x="180" y="108" width="4" height="4" fill="#c8b080"/>
<rect x="184" y="108" width="4" height="4" fill="#12141c"/>
<rect x="36" y="112" width="36" height="4" fill="#12141c"/>
<rect x="72" y="112" width="40" height="4" fill="#e8ecf4"/>
<rect x="112" y="112" width="16" height="4" fill="#b8c4d8"/>
<rect x="128" y="112" width="12" height="4" fill="#12141c"/>
<rect x="144" y="112" width="24" height="4" fill="#12141c"/>
<rect x="176" y="112" width="4" height="4" fill="#12141c"/>
<rect x="180" y="112" width="4" height="4" fill="#c8b080"/>
<rect x="184" y="112" width="4" height="4" fill="#12141c"/>
<rect x="32" y="116" width="4" height="4" fill="#12141c"/>
<rect x="36" y="116" width="24" height="4" fill="#f0c95a"/>
<rect x="60" y="116" width="52" height="4" fill="#e8ecf4"/>
<rect x="112" y="116" width="28" height="4" fill="#b8c4d8"/>
<rect x="140" y="116" width="4" height="4" fill="#12141c"/>
<rect x="144" y="116" width="24" height="4" fill="#f0c95a"/>
<rect x="168" y="116" width="4" height="4" fill="#12141c"/>
<rect x="176" y="116" width="4" height="4" fill="#12141c"/>
<rect x="180" y="116" width="4" height="4" fill="#c8b080"/>
<rect x="184" y="116" width="4" height="4" fill="#12141c"/>
<rect x="32" y="120" width="4" height="4" fill="#12141c"/>
<rect x="36" y="120" width="24" height="4" fill="#c8a040"/>
<rect x="60" y="120" width="52" height="4" fill="#e8ecf4"/>
<rect x="112" y="120" width="32" height="4" fill="#b8c4d8"/>
<rect x="144" y="120" width="24" height="4" fill="#c8a040"/>
<rect x="168" y="120" width="4" height="4" fill="#12141c"/>
<rect x="176" y="120" width="4" height="4" fill="#12141c"/>
<rect x="180" y="120" width="4" height="4" fill="#c8b080"/>
<rect x="184" y="120" width="4" height="4" fill="#12141c"/>
<rect x="32" y="124" width="4" height="4" fill="#12141c"/>
<rect x="36" y="124" width="24" height="4" fill="#c8a040"/>
<rect x="60" y="124" width="52" height="4" fill="#e8ecf4"/>
<rect x="112" y="124" width="32" height="4" fill="#b8c4d8"/>
<rect x="144" y="124" width="24" height="4" fill="#c8a040"/>
<rect x="168" y="124" width="4" height="4" fill="#12141c"/>
<rect x="176" y="124" width="4" height="4" fill="#12141c"/>
<rect x="180" y="124" width="4" height="4" fill="#c8b080"/>
<rect x="184" y="124" width="4" height="4" fill="#12141c"/>
<rect x="36" y="128" width="16" height="4" fill="#12141c"/>
<rect x="52" y="128" width="48" height="4" fill="#e8ecf4"/>
<rect x="100" y="128" width="4" height="4" fill="#f0c95a"/>
<rect x="104" y="128" width="8" height="4" fill="#e8ecf4"/>
<rect x="112" y="128" width="36" height="4" fill="#b8c4d8"/>
<rect x="148" y="128" width="20" height="4" fill="#12141c"/>
<rect x="176" y="128" width="4" height="4" fill="#12141c"/>
<rect x="180" y="128" width="4" height="4" fill="#c8b080"/>
<rect x="184" y="128" width="4" height="4" fill="#12141c"/>
<rect x="48" y="132" width="4" height="4" fill="#12141c"/>
<rect x="52" y="132" width="48" height="4" fill="#e8ecf4"/>
<rect x="100" y="132" width="4" height="4" fill="#f0c95a"/>
<rect x="104" y="132" width="8" height="4" fill="#e8ecf4"/>
<rect x="112" y="132" width="36" height="4" fill="#b8c4d8"/>
<rect x="148" y="132" width="4" height="4" fill="#12141c"/>
<rect x="176" y="132" width="4" height="4" fill="#12141c"/>
<rect x="180" y="132" width="4" height="4" fill="#c8b080"/>
<rect x="184" y="132" width="4" height="4" fill="#12141c"/>
<rect x="44" y="136" width="4" height="4" fill="#12141c"/>
<rect x="48" y="136" width="4" height="4" fill="#e8ecf4"/>
<rect x="52" y="136" width="100" height="4" fill="#f0c95a"/>
<rect x="152" y="136" width="4" height="4" fill="#12141c"/>
<rect x="176" y="136" width="4" height="4" fill="#12141c"/>
<rect x="180" y="136" width="4" height="4" fill="#c8b080"/>
<rect x="184" y="136" width="4" height="4" fill="#12141c"/>
<rect x="44" y="140" width="4" height="4" fill="#12141c"/>
<rect x="48" y="140" width="52" height="4" fill="#e8ecf4"/>
<rect x="100" y="140" width="4" height="4" fill="#7fdba0"/>
<rect x="104" y="140" width="8" height="4" fill="#e8ecf4"/>
<rect x="112" y="140" width="40" height="4" fill="#b8c4d8"/>
<rect x="152" y="140" width="4" height="4" fill="#12141c"/>
<rect x="176" y="140" width="4" height="4" fill="#12141c"/>
<rect x="180" y="140" width="4" height="4" fill="#c8b080"/>
<rect x="184" y="140" width="4" height="4" fill="#12141c"/>
<rect x="40" y="144" width="4" height="4" fill="#12141c"/>
<rect x="44" y="144" width="52" height="4" fill="#e8ecf4"/>
<rect x="96" y="144" width="12" height="4" fill="#7fdba0"/>
<rect x="108" y="144" width="4" height="4" fill="#e8ecf4"/>
<rect x="112" y="144" width="44" height="4" fill="#b8c4d8"/>
<rect x="156" y="144" width="4" height="4" fill="#12141c"/>
<rect x="176" y="144" width="4" height="4" fill="#12141c"/>
<rect x="180" y="144" width="4" height="4" fill="#c8b080"/>
<rect x="184" y="144" width="4" height="4" fill="#12141c"/>
<rect x="40" y="148" width="4" height="4" fill="#12141c"/>
<rect x="44" y="148" width="56" height="4" fill="#e8ecf4"/>
<rect x="100" y="148" width="4" height="4" fill="#7fdba0"/>
<rect x="104" y="148" width="8" height="4" fill="#e8ecf4"/>
<rect x="112" y="148" width="44" height="4" fill="#b8c4d8"/>
<rect x="156" y="148" width="4" height="4" fill="#12141c"/>
<rect x="168" y="148" width="12" height="4" fill="#12141c"/>
<rect x="180" y="148" width="4" height="4" fill="#c8b080"/>
<rect x="184" y="148" width="4" height="4" fill="#12141c"/>
<rect x="40" y="152" width="4" height="4" fill="#12141c"/>
<rect x="44" y="152" width="56" height="4" fill="#e8ecf4"/>
<rect x="100" y="152" width="4" height="4" fill="#f0c95a"/>
<rect x="104" y="152" width="8" height="4" fill="#e8ecf4"/>
<rect x="112" y="152" width="44" height="4" fill="#b8c4d8"/>
<rect x="156" y="152" width="4" height="4" fill="#12141c"/>
<rect x="164" y="152" width="4" height="4" fill="#12141c"/>
<rect x="168" y="152" width="12" height="4" fill="#f6d3a3"/>
<rect x="180" y="152" width="4" height="4" fill="#c8b080"/>
<rect x="184" y="152" width="4" height="4" fill="#12141c"/>
<rect x="36" y="156" width="4" height="4" fill="#12141c"/>
<rect x="40" y="156" width="60" height="4" fill="#e8ecf4"/>
<rect x="100" y="156" width="4" height="4" fill="#f0c95a"/>
<rect x="104" y="156" width="8" height="4" fill="#e8ecf4"/>
<rect x="112" y="156" width="48" height="4" fill="#b8c4d8"/>
<rect x="160" y="156" width="8" height="4" fill="#12141c"/>
<rect x="168" y="156" width="8" height="4" fill="#f6d3a3"/>
<rect x="176" y="156" width="4" height="4" fill="#12141c"/>
<rect x="180" y="156" width="4" height="4" fill="#c8b080"/>
<rect x="184" y="156" width="4" height="4" fill="#12141c"/>
<rect x="36" y="160" width="4" height="4" fill="#12141c"/>
<rect x="40" y="160" width="60" height="4" fill="#e8ecf4"/>
<rect x="100" y="160" width="4" height="4" fill="#f0c95a"/>
<rect x="104" y="160" width="8" height="4" fill="#e8ecf4"/>
<rect x="112" y="160" width="48" height="4" fill="#b8c4d8"/>
<rect x="160" y="160" width="4" height="4" fill="#12141c"/>
<rect x="168" y="160" width="12" height="4" fill="#12141c"/>
<rect x="180" y="160" width="4" height="4" fill="#c8b080"/>
<rect x="184" y="160" width="4" height="4" fill="#12141c"/>
<rect x="36" y="164" width="4" height="4" fill="#12141c"/>
<rect x="40" y="164" width="60" height="4" fill="#e8ecf4"/>
<rect x="100" y="164" width="4" height="4" fill="#f0c95a"/>
<rect x="104" y="164" width="8" height="4" fill="#e8ecf4"/>
<rect x="112" y="164" width="48" height="4" fill="#b8c4d8"/>
<rect x="160" y="164" width="4" height="4" fill="#12141c"/>
<rect x="176" y="164" width="4" height="4" fill="#12141c"/>
<rect x="180" y="164" width="4" height="4" fill="#c8b080"/>
<rect x="184" y="164" width="4" height="4" fill="#12141c"/>
<rect x="32" y="168" width="4" height="4" fill="#12141c"/>
<rect x="36" y="168" width="64" height="4" fill="#e8ecf4"/>
<rect x="100" y="168" width="4" height="4" fill="#f0c95a"/>
<rect x="104" y="168" width="8" height="4" fill="#e8ecf4"/>
<rect x="112" y="168" width="52" height="4" fill="#b8c4d8"/>
<rect x="164" y="168" width="4" height="4" fill="#12141c"/>
<rect x="176" y="168" width="4" height="4" fill="#12141c"/>
<rect x="180" y="168" width="4" height="4" fill="#c8b080"/>
<rect x="184" y="168" width="4" height="4" fill="#12141c"/>
<rect x="32" y="172" width="4" height="4" fill="#12141c"/>
<rect x="36" y="172" width="64" height="4" fill="#e8ecf4"/>
<rect x="100" y="172" width="4" height="4" fill="#f0c95a"/>
<rect x="104" y="172" width="8" height="4" fill="#e8ecf4"/>
<rect x="112" y="172" width="52" height="4" fill="#b8c4d8"/>
<rect x="164" y="172" width="4" height="4" fill="#12141c"/>
<rect x="176" y="172" width="4" height="4" fill="#12141c"/>
<rect x="180" y="172" width="4" height="4" fill="#c8b080"/>
<rect x="184" y="172" width="4" height="4" fill="#12141c"/>
<rect x="32" y="176" width="4" height="4" fill="#12141c"/>
<rect x="36" y="176" width="64" height="4" fill="#e8ecf4"/>
<rect x="100" y="176" width="4" height="4" fill="#f0c95a"/>
<rect x="104" y="176" width="8" height="4" fill="#e8ecf4"/>
<rect x="112" y="176" width="52" height="4" fill="#b8c4d8"/>
<rect x="164" y="176" width="4" height="4" fill="#12141c"/>
<rect x="176" y="176" width="4" height="4" fill="#12141c"/>
<rect x="180" y="176" width="4" height="4" fill="#c8b080"/>
<rect x="184" y="176" width="4" height="4" fill="#12141c"/>
<rect x="32" y="180" width="4" height="4" fill="#12141c"/>
<rect x="36" y="180" width="64" height="4" fill="#e8ecf4"/>
<rect x="100" y="180" width="4" height="4" fill="#f0c95a"/>
<rect x="104" y="180" width="8" height="4" fill="#e8ecf4"/>
<rect x="112" y="180" width="52" height="4" fill="#b8c4d8"/>
<rect x="164" y="180" width="4" height="4" fill="#12141c"/>
<rect x="176" y="180" width="4" height="4" fill="#12141c"/>
<rect x="180" y="180" width="4" height="4" fill="#c8b080"/>
<rect x="184" y="180" width="4" height="4" fill="#12141c"/>
<rect x="32" y="184" width="4" height="4" fill="#12141c"/>
<rect x="36" y="184" width="64" height="4" fill="#e8ecf4"/>
<rect x="100" y="184" width="4" height="4" fill="#f0c95a"/>
<rect x="104" y="184" width="8" height="4" fill="#e8ecf4"/>
<rect x="112" y="184" width="52" height="4" fill="#b8c4d8"/>
<rect x="164" y="184" width="4" height="4" fill="#12141c"/>
<rect x="176" y="184" width="4" height="4" fill="#12141c"/>
<rect x="180" y="184" width="4" height="4" fill="#c8b080"/>
<rect x="184" y="184" width="4" height="4" fill="#12141c"/>
<rect x="28" y="188" width="4" height="4" fill="#12141c"/>
<rect x="32" y="188" width="68" height="4" fill="#e8ecf4"/>
<rect x="100" y="188" width="4" height="4" fill="#f0c95a"/>
<rect x="104" y="188" width="8" height="4" fill="#e8ecf4"/>
<rect x="112" y="188" width="56" height="4" fill="#b8c4d8"/>
<rect x="168" y="188" width="4" height="4" fill="#12141c"/>
<rect x="176" y="188" width="4" height="4" fill="#12141c"/>
<rect x="180" y="188" width="4" height="4" fill="#c8b080"/>
<rect x="184" y="188" width="4" height="4" fill="#12141c"/>
<rect x="28" y="192" width="4" height="4" fill="#12141c"/>
<rect x="32" y="192" width="68" height="4" fill="#e8ecf4"/>
<rect x="100" y="192" width="4" height="4" fill="#f0c95a"/>
<rect x="104" y="192" width="8" height="4" fill="#e8ecf4"/>
<rect x="112" y="192" width="56" height="4" fill="#b8c4d8"/>
<rect x="168" y="192" width="4" height="4" fill="#12141c"/>
<rect x="176" y="192" width="4" height="4" fill="#12141c"/>
<rect x="180" y="192" width="4" height="4" fill="#c8b080"/>
<rect x="184" y="192" width="4" height="4" fill="#12141c"/>
<rect x="32" y="196" width="136" height="4" fill="#12141c"/>
<rect x="176" y="196" width="4" height="4" fill="#12141c"/>
<rect x="180" y="196" width="4" height="4" fill="#c8b080"/>
<rect x="184" y="196" width="4" height="4" fill="#12141c"/>
</svg>
