<svg xmlns="http://www.w3.org/2000/svg" viewBox="0 0 240 80" width="240" height="80" shape-rendering="crispEdges">
<rect x="80" y="4" width="32" height="4" fill="#ffffff"/>
<rect x="76" y="8" width="40" height="4" fill="#ffffff"/>
<rect x="72" y="12" width="48" height="4" fill="#ffffff"/>
<rect x="128" y="12" width="24" height="4" fill="#ffffff"/>
<rect x="68" y="16" width="92" height="4" fill="#ffffff"/>
<rect x="48" y="20" width="16" height="4" fill="#ffffff"/>
<rect x="68" y="20" width="92" height="4" fill="#ffffff"/>
<rect x="40" y="24" width="124" height="4" fill="#ffffff"/>
<rect x="36" y="28" width="128" height="4" fill="#ffffff"/>
<rect x="168" y="28" width="16" height="4" fill="#ffffff"/>
<rect x="36" y="32" width="156" height="4" fill="#ffffff"/>
<rect x="32" y="36" width="160" height="4" fill="#ffffff"/>
<rect x="32" y="40" width="164" height="4" fill="#ffffff"/>
<rect x="12" y="44" width="8" height="4" fill="#ffffff"/>
<rect x="32" y="44" width="164" height="4" fill="#ffffff"/>
<rect x="208" y="44" width="8" height="4" fill="#ffffff"/>
<rect x="8" y="48" width="4" height="4" fill="#ffffff"/>
<rect x="32" y="48" width="168" height="4" fill="#ffffff"/>
<rect x="204" y="48" width="4" height="4" fill="#ffffff"/>
<rect x="216" y="48" width="4" height="4" fill="#ffffff"/>
<rect x="8" y="52" width="4" height="4" fill="#ffffff"/>
<rect x="32" y="52" width="168" height="4" fill="#ffffff"/>
<rect x="216" y="52" width="4" height="4" fill="#ffffff"/>
<rect x="12" y="56" width="4" height="4" fill="#ffffff"/>
<rect x="32" y="56" width="168" height="4" fill="#ffffff"/>
<rect x="212" y="56" width="4" height="4" fill="#ffffff"/>
<rect x="16" y="60" width="4" height="4" fill="#ffffff" fill-opacity="0.7"/>
<rect x="20" y="60" width="4" height="4" fill="#ffffff"/>
<rect x="32" y="60" width="4" height="4" fill="#ffffff" fill-opacity="0.7"/>
<rect x="36" y="60" width="4" height="4" fill="#ffffff"/>
<rect x="40" y="60" width="4" height="4" fill="#ffffff" fill-opacity="0.7"/>
<rect x="44" y="60" width="4" height="4" fill="#ffffff"/>
<rect x="48" y="60" width="4" height="4" fill="#ffffff" fill-opacity="0.7"/>
<rect x="52" y="60" width="4" height="4" fill="#ffffff"/>
<rect x="56" y="60" width="4" height="4" fill="#ffffff" fill-opacity="0.7"/>
<rect x="60" y="60" width="4" height="4" fill="#ffffff"/>
<rect x="64" y="60" width="4" height="4" fill="#ffffff" fill-opacity="0.7"/>
<rect x="68" y="60" width="4" height="4" fill="#ffffff"/>
<rect x="72" y="60" width="4" height="4" fill="#ffffff" fill-opacity="0.7"/>
<rect x="76" y="60" width="4" height="4" fill="#ffffff"/>
<rect x="80" y="60" width="4" height="4" fill="#ffffff" fill-opacity="0.7"/>
<rect x="84" y="60" width="4" height="4" fill="#ffffff"/>
<rect x="88" y="60" width="4" height="4" fill="#ffffff" fill-opacity="0.7"/>
<rect x="92" y="60" width="4" height="4" fill="#ffffff"/>
<rect x="96" y="60" width="4" height="4" fill="#ffffff" fill-opacity="0.7"/>
<rect x="100" y="60" width="4" height="4" fill="#ffffff"/>
<rect x="104" y="60" width="4" height="4" fill="#ffffff" fill-opacity="0.7"/>
<rect x="108" y="60" width="4" height="4" fill="#ffffff"/>
<rect x="112" y="60" width="4" height="4" fill="#ffffff" fill-opacity="0.7"/>
<rect x="116" y="60" width="4" height="4" fill="#ffffff"/>
<rect x="120" y="60" width="4" height="4" fill="#ffffff" fill-opacity="0.7"/>
<rect x="124" y="60" width="4" height="4" fill="#ffffff"/>
<rect x="128" y="60" width="4" height="4" fill="#ffffff" fill-opacity="0.7"/>
<rect x="132" y="60" width="4" height="4" fill="#ffffff"/>
<rect x="136" y="60" width="4" height="4" fill="#ffffff" fill-opacity="0.7"/>
<rect x="140" y="60" width="4" height="4" fill="#ffffff"/>
<rect x="144" y="60" width="4" height="4" fill="#ffffff" fill-opacity="0.7"/>
<rect x="148" y="60" width="4" height="4" fill="#ffffff"/>
<rect x="152" y="60" width="4" height="4" fill="#ffffff" fill-opacity="0.7"/>
<rect x="156" y="60" width="4" height="4" fill="#ffffff"/>
<rect x="160" y="60" width="4" height="4" fill="#ffffff" fill-opacity="0.7"/>
<rect x="164" y="60" width="4" height="4" fill="#ffffff"/>
<rect x="168" y="60" width="4" height="4" fill="#ffffff" fill-opacity="0.7"/>
<rect x="172" y="60" width="4" height="4" fill="#ffffff"/>
<rect x="176" y="60" width="4" height="4" fill="#ffffff" fill-opacity="0.7"/>
<rect x="180" y="60" width="4" height="4" fill="#ffffff"/>
<rect x="184" y="60" width="4" height="4" fill="#ffffff" fill-opacity="0.7"/>
<rect x="188" y="60" width="4" height="4" fill="#ffffff"/>
<rect x="192" y="60" width="4" height="4" fill="#ffffff" fill-opacity="0.7"/>
<rect x="196" y="60" width="4" height="4" fill="#ffffff"/>
<rect x="200" y="60" width="4" height="4" fill="#ffffff" fill-opacity="0.7"/>
<rect x="208" y="60" width="4" height="4" fill="#ffffff" fill-opacity="0.7"/>
<rect x="32" y="64" width="4" height="4" fill="#ffffff"/>
<rect x="36" y="64" width="4" height="4" fill="#ffffff" fill-opacity="0.7"/>
<rect x="40" y="64" width="4" height="4" fill="#ffffff"/>
<rect x="44" y="64" width="4" height="4" fill="#ffffff" fill-opacity="0.7"/>
<rect x="48" y="64" width="4" height="4" fill="#ffffff"/>
<rect x="52" y="64" width="4" height="4" fill="#ffffff" fill-opacity="0.7"/>
<rect x="56" y="64" width="4" height="4" fill="#ffffff"/>
<rect x="60" y="64" width="4" height="4" fill="#ffffff" fill-opacity="0.7"/>
<rect x="64" y="64" width="4" height="4" fill="#ffffff"/>
<rect x="68" y="64" width="4" height="4" fill="#ffffff" fill-opacity="0.7"/>
<rect x="72" y="64" width="4" height="4" fill="#ffffff"/>
<rect x="76" y="64" width="4" height="4" fill="#ffffff" fill-opacity="0.7"/>
<rect x="80" y="64" width="4" height="4" fill="#ffffff"/>
<rect x="84" y="64" width="4" height="4" fill="#ffffff" fill-opacity="0.7"/>
<rect x="88" y="64" width="4" height="4" fill="#ffffff"/>
<rect x="92" y="64" width="4" height="4" fill="#ffffff" fill-opacity="0.7"/>
<rect x="96" y="64" width="4" height="4" fill="#ffffff"/>
<rect x="100" y="64" width="4" height="4" fill="#ffffff" fill-opacity="0.7"/>
<rect x="104" y="64" width="4" height="4" fill="#ffffff"/>
<rect x="108" y="64" width="4" height="4" fill="#ffffff" fill-opacity="0.7"/>
<rect x="112" y="64" width="4" height="4" fill="#ffffff"/>
<rect x="116" y="64" width="4" height="4" fill="#ffffff" fill-opacity="0.7"/>
<rect x="120" y="64" width="4" height="4" fill="#ffffff"/>
<rect x="124" y="64" width="4" height="4" fill="#ffffff" fill-opacity="0.7"/>
<rect x="128" y="64" width="4" height="4" fill="#ffffff"/>
<rect x="132" y="64" width="4" height="4" fill="#ffffff" fill-opacity="0.7"/>
<rect x="136" y="64" width="4" height="4" fill="#ffffff"/>
<rect x="140" y="64" width="4" height="4" fill="#ffffff" fill-opacity="0.7"/>
<rect x="144" y="64" width="4" height="4" fill="#ffffff"/>
<rect x="148" y="64" width="4" height="4" fill="#ffffff" fill-opacity="0.7"/>
<rect x="152" y="64" width="4" height="4" fill="#ffffff"/>
<rect x="156" y="64" width="4" height="4" fill="#ffffff" fill-opacity="0.7"/>
<rect x="160" y="64" width="4" height="4" fill="#ffffff"/>
<rect x="164" y="64" width="4" height="4" fill="#ffffff" fill-opacity="0.7"/>
<rect x="168" y="64" width="4" height="4" fill="#ffffff"/>
<rect x="172" y="64" width="4" height="4" fill="#ffffff" fill-opacity="0.7"/>
<rect x="176" y="64" width="4" height="4" fill="#ffffff"/>
<rect x="180" y="64" width="4" height="4" fill="#ffffff" fill-opacity="0.7"/>
<rect x="184" y="64" width="4" height="4" fill="#ffffff"/>
<rect x="188" y="64" width="4" height="4" fill="#ffffff" fill-opacity="0.7"/>
<rect x="192" y="64" width="4" height="4" fill="#ffffff"/>
<rect x="196" y="64" width="4" height="4" fill="#ffffff" fill-opacity="0.7"/>
</svg>
