<svg xmlns="http://www.w3.org/2000/svg" viewBox="0 0 40 56" width="40" height="56" shape-rendering="crispEdges">
<rect x="12" y="0" width="12" height="2" fill="#12141c"/>
<rect x="10" y="2" width="2" height="2" fill="#12141c"/>
<rect x="12" y="2" width="12" height="2" fill="#6b52a8"/>
<rect x="24" y="2" width="2" height="2" fill="#12141c"/>
<rect x="8" y="4" width="2" height="2" fill="#12141c"/>
<rect x="10" y="4" width="16" height="2" fill="#6b52a8"/>
<rect x="26" y="4" width="2" height="2" fill="#12141c"/>
<rect x="8" y="6" width="2" height="2" fill="#12141c"/>
<rect x="10" y="6" width="16" height="2" fill="#6b52a8"/>
<rect x="26" y="6" width="2" height="2" fill="#12141c"/>
<rect x="6" y="8" width="2" height="2" fill="#12141c"/>
<rect x="8" y="8" width="20" height="2" fill="#6b52a8"/>
<rect x="28" y="8" width="2" height="2" fill="#12141c"/>
<rect x="6" y="10" width="2" height="2" fill="#12141c"/>
<rect x="8" y="10" width="20" height="2" fill="#6b52a8"/>
<rect x="28" y="10" width="2" height="2" fill="#12141c"/>
<rect x="4" y="12" width="2" height="2" fill="#12141c"/>
<rect x="6" y="12" width="4" height="2" fill="#6b52a8"/>
<rect x="10" y="12" width="16" height="2" fill="#4a3a78"/>
<rect x="26" y="12" width="4" height="2" fill="#6b52a8"/>
<rect x="30" y="12" width="2" height="2" fill="#12141c"/>
<rect x="4" y="14" width="2" height="2" fill="#12141c"/>
<rect x="6" y="14" width="4" height="2" fill="#6b52a8"/>
<rect x="10" y="14" width="16" height="2" fill="#2a2140"/>
<rect x="26" y="14" width="4" height="2" fill="#6b52a8"/>
<rect x="30" y="14" width="2" height="2" fill="#12141c"/>
<rect x="4" y="16" width="2" height="2" fill="#12141c"/>
<rect x="6" y="16" width="4" height="2" fill="#6b52a8"/>
<rect x="10" y="16" width="2" height="2" fill="#2a2140"/>
<rect x="12" y="16" width="4" height="2" fill="#ffe9a8"/>
<rect x="16" y="16" width="4" height="2" fill="#2a2140"/>
<rect x="20" y="16" width="4" height="2" fill="#ffe9a8"/>
<rect x="24" y="16" width="2" height="2" fill="#2a2140"/>
<rect x="26" y="16" width="4" height="2" fill="#6b52a8"/>
<rect x="30" y="16" width="2" height="2" fill="#12141c"/>
<rect x="4" y="18" width="2" height="2" fill="#12141c"/>
<rect x="6" y="18" width="4" height="2" fill="#6b52a8"/>
<rect x="10" y="18" width="16" height="2" fill="#2a2140"/>
<rect x="26" y="18" width="4" height="2" fill="#6b52a8"/>
<rect x="30" y="18" width="2" height="2" fill="#12141c"/>
<rect x="4" y="20" width="2" height="2" fill="#12141c"/>
<rect x="6" y="20" width="4" height="2" fill="#6b52a8"/>
<rect x="10" y="20" width="16" height="2" fill="#2a2140"/>
<rect x="26" y="20" width="4" height="2" fill="#6b52a8"/>
<rect x="30" y="20" width="2" height="2" fill="#12141c"/>
<rect x="6" y="22" width="2" height="2" fill="#12141c"/>
<rect x="8" y="22" width="2" height="2" fill="#6b52a8"/>
<rect x="10" y="22" width="16" height="2" fill="#2a2140"/>
<rect x="26" y="22" width="2" height="2" fill="#6b52a8"/>
<rect x="28" y="22" width="2" height="2" fill="#12141c"/>
<rect x="6" y="24" width="2" height="2" fill="#12141c"/>
<rect x="8" y="24" width="4" height="2" fill="#6b52a8"/>
<rect x="12" y="24" width="12" height="2" fill="#2a2140"/>
<rect x="24" y="24" width="4" height="2" fill="#6b52a8"/>
<rect x="28" y="24" width="2" height="2" fill="#12141c"/>
<rect x="6" y="26" width="2" height="2" fill="#12141c"/>
<rect x="8" y="26" width="20" height="2" fill="#f0c95a"/>
<rect x="28" y="26" width="2" height="2" fill="#12141c"/>
<rect x="32" y="26" width="6" height="2" fill="#12141c"/>
<rect x="4" y="28" width="2" height="2" fill="#12141c"/>
<rect x="6" y="28" width="2" height="2" fill="#f0c95a"/>
<rect x="8" y="28" width="8" height="2" fill="#9a7fd0"/>
<rect x="16" y="28" width="4" height="2" fill="#d9cbf5"/>
<rect x="20" y="28" width="8" height="2" fill="#9a7fd0"/>
<rect x="28" y="28" width="2" height="2" fill="#f0c95a"/>
<rect x="30" y="28" width="2" height="2" fill="#12141c"/>
<rect x="32" y="28" width="6" height="2" fill="#f3df8a"/>
<rect x="38" y="28" width="2" height="2" fill="#12141c"/>
<rect x="2" y="30" width="2" height="2" fill="#12141c"/>
<rect x="4" y="30" width="2" height="2" fill="#5f4a8f"/>
<rect x="6" y="30" width="12" height="2" fill="#9a7fd0"/>
<rect x="18" y="30" width="2" height="2" fill="#d9cbf5"/>
<rect x="20" y="30" width="10" height="2" fill="#9a7fd0"/>
<rect x="30" y="30" width="2" height="2" fill="#5f4a8f"/>
<rect x="32" y="30" width="2" height="2" fill="#f3df8a"/>
<rect x="34" y="30" width="2" height="2" fill="#c43a3a"/>
<rect x="36" y="30" width="2" height="2" fill="#f3df8a"/>
<rect x="38" y="30" width="2" height="2" fill="#12141c"/>
<rect x="2" y="32" width="2" height="2" fill="#12141c"/>
<rect x="4" y="32" width="4" height="2" fill="#9a7fd0"/>
<rect x="8" y="32" width="2" height="2" fill="#5f4a8f"/>
<rect x="10" y="32" width="8" height="2" fill="#9a7fd0"/>
<rect x="18" y="32" width="2" height="2" fill="#d9cbf5"/>
<rect x="20" y="32" width="6" height="2" fill="#9a7fd0"/>
<rect x="26" y="32" width="2" height="2" fill="#5f4a8f"/>
<rect x="28" y="32" width="4" height="2" fill="#9a7fd0"/>
<rect x="32" y="32" width="2" height="2" fill="#f3df8a"/>
<rect x="34" y="32" width="2" height="2" fill="#c43a3a"/>
<rect x="36" y="32" width="2" height="2" fill="#f3df8a"/>
<rect x="38" y="32" width="2" height="2" fill="#12141c"/>
<rect x="2" y="34" width="2" height="2" fill="#12141c"/>
<rect x="4" y="34" width="4" height="2" fill="#9a7fd0"/>
<rect x="8" y="34" width="2" height="2" fill="#5f4a8f"/>
<rect x="10" y="34" width="10" height="2" fill="#9a7fd0"/>
<rect x="20" y="34" width="2" height="2" fill="#d9cbf5"/>
<rect x="22" y="34" width="4" height="2" fill="#9a7fd0"/>
<rect x="26" y="34" width="2" height="2" fill="#5f4a8f"/>
<rect x="28" y="34" width="4" height="2" fill="#9a7fd0"/>
<rect x="32" y="34" width="2" height="2" fill="#c43a3a"/>
<rect x="34" y="34" width="2" height="2" fill="#f3df8a"/>
<rect x="36" y="34" width="2" height="2" fill="#c43a3a"/>
<rect x="38" y="34" width="2" height="2" fill="#12141c"/>
<rect x="2" y="36" width="2" height="2" fill="#12141c"/>
<rect x="4" y="36" width="4" height="2" fill="#9a7fd0"/>
<rect x="8" y="36" width="2" height="2" fill="#5f4a8f"/>
<rect x="10" y="36" width="12" height="2" fill="#9a7fd0"/>
<rect x="22" y="36" width="2" height="2" fill="#d9cbf5"/>
<rect x="24" y="36" width="2" height="2" fill="#9a7fd0"/>
<rect x="26" y="36" width="2" height="2" fill="#5f4a8f"/>
<rect x="28" y="36" width="4" height="2" fill="#9a7fd0"/>
<rect x="32" y="36" width="2" height="2" fill="#f3df8a"/>
<rect x="34" y="36" width="2" height="2" fill="#c43a3a"/>
<rect x="36" y="36" width="2" height="2" fill="#f3df8a"/>
<rect x="38" y="36" width="2" height="2" fill="#12141c"/>
<rect x="2" y="38" width="2" height="2" fill="#12141c"/>
<rect x="4" y="38" width="4" height="2" fill="#9a7fd0"/>
<rect x="8" y="38" width="2" height="2" fill="#5f4a8f"/>
<rect x="10" y="38" width="16" height="2" fill="#3a2c5c"/>
<rect x="26" y="38" width="2" height="2" fill="#5f4a8f"/>
<rect x="28" y="38" width="4" height="2" fill="#9a7fd0"/>
<rect x="32" y="38" width="2" height="2" fill="#f3df8a"/>
<rect x="34" y="38" width="2" height="2" fill="#c43a3a"/>
<rect x="36" y="38" width="2" height="2" fill="#f3df8a"/>
<rect x="38" y="38" width="2" height="2" fill="#12141c"/>
<rect x="2" y="40" width="2" height="2" fill="#12141c"/>
<rect x="4" y="40" width="2" height="2" fill="#5f4a8f"/>
<rect x="6" y="40" width="2" height="2" fill="#9a7fd0"/>
<rect x="8" y="40" width="2" height="2" fill="#5f4a8f"/>
<rect x="10" y="40" width="6" height="2" fill="#3a2c5c"/>
<rect x="16" y="40" width="2" height="2" fill="#7fdba0"/>
<rect x="18" y="40" width="8" height="2" fill="#3a2c5c"/>
<rect x="26" y="40" width="2" height="2" fill="#5f4a8f"/>
<rect x="28" y="40" width="2" height="2" fill="#9a7fd0"/>
<rect x="30" y="40" width="2" height="2" fill="#5f4a8f"/>
<rect x="32" y="40" width="6" height="2" fill="#f3df8a"/>
<rect x="38" y="40" width="2" height="2" fill="#12141c"/>
<rect x="2" y="42" width="2" height="2" fill="#12141c"/>
<rect x="4" y="42" width="4" height="2" fill="#f6d3a3"/>
<rect x="8" y="42" width="2" height="2" fill="#5f4a8f"/>
<rect x="10" y="42" width="6" height="2" fill="#9a7fd0"/>
<rect x="16" y="42" width="2" height="2" fill="#3a2c5c"/>
<rect x="18" y="42" width="8" height="2" fill="#9a7fd0"/>
<rect x="26" y="42" width="2" height="2" fill="#5f4a8f"/>
<rect x="28" y="42" width="4" height="2" fill="#f6d3a3"/>
<rect x="32" y="42" width="6" height="2" fill="#12141c"/>
<rect x="4" y="44" width="2" height="2" fill="#12141c"/>
<rect x="6" y="44" width="2" height="2" fill="#5f4a8f"/>
<rect x="8" y="44" width="8" height="2" fill="#9a7fd0"/>
<rect x="16" y="44" width="2" height="2" fill="#3a2c5c"/>
<rect x="18" y="44" width="10" height="2" fill="#9a7fd0"/>
<rect x="28" y="44" width="2" height="2" fill="#5f4a8f"/>
<rect x="30" y="44" width="2" height="2" fill="#12141c"/>
<rect x="4" y="46" width="2" height="2" fill="#12141c"/>
<rect x="6" y="46" width="2" height="2" fill="#5f4a8f"/>
<rect x="8" y="46" width="10" height="2" fill="#9a7fd0"/>
<rect x="18" y="46" width="2" height="2" fill="#3a2c5c"/>
<rect x="20" y="46" width="8" height="2" fill="#9a7fd0"/>
<rect x="28" y="46" width="2" height="2" fill="#5f4a8f"/>
<rect x="30" y="46" width="2" height="2" fill="#12141c"/>
<rect x="2" y="48" width="2" height="2" fill="#12141c"/>
<rect x="4" y="48" width="2" height="2" fill="#5f4a8f"/>
<rect x="6" y="48" width="24" height="2" fill="#9a7fd0"/>
<rect x="30" y="48" width="2" height="2" fill="#5f4a8f"/>
<rect x="32" y="48" width="2" height="2" fill="#12141c"/>
<rect x="2" y="50" width="2" height="2" fill="#12141c"/>
<rect x="4" y="50" width="2" height="2" fill="#5f4a8f"/>
<rect x="6" y="50" width="24" height="2" fill="#f0c95a"/>
<rect x="30" y="50" width="2" height="2" fill="#5f4a8f"/>
<rect x="32" y="50" width="2" height="2" fill="#12141c"/>
<rect x="4" y="52" width="6" height="2" fill="#12141c"/>
<rect x="10" y="52" width="4" height="2" fill="#3a2c5c"/>
<rect x="14" y="52" width="8" height="2" fill="#12141c"/>
<rect x="22" y="52" width="4" height="2" fill="#3a2c5c"/>
<rect x="26" y="52" width="6" height="2" fill="#12141c"/>
<rect x="6" y="54" width="2" height="2" fill="#12141c"/>
<rect x="8" y="54" width="6" height="2" fill="#1d1630"/>
<rect x="14" y="54" width="2" height="2" fill="#12141c"/>
<rect x="20" y="54" width="2" height="2" fill="#12141c"/>
<rect x="22" y="54" width="6" height="2" fill="#1d1630"/>
<rect x="28" y="54" width="2" height="2" fill="#12141c"/>
</svg>
