<svg xmlns="http://www.w3.org/2000/svg" viewBox="0 0 46 56" width="46" height="56">
<path d="M14.1 43 h5.4 v7.6 l-2.7 2.2 l-2.7 -2.2z" fill="#333224"/>
  <path d="M26.5 43 h5.4 v14.0 l-2.7 2.2 l-2.7 -2.2z" fill="#41402f"/>
  <path d="M23.0 19 c-9.5 0 -10.5 5 -11.5 12 L10.5 43 h25.0 L34.5 31 c-1-7 -8.5-12 -9.5-12z" fill="#6f6e5a"/>
  <rect x="11.1" y="38" width="23.8" height="4.4" fill="#8a8770"/>
  <path d="M18.6 20 L23.0 26 L27.4 20 L23.0 18.4z" fill="#8b8a72"/>
  <path d="M14.5 24.0 L10.1 40.0" stroke="#565543" stroke-width="4.4" stroke-linecap="round" fill="none"/>
  <path d="M31.5 24.0 L35.9 30.0" stroke="#6f6e5a" stroke-width="4.4" stroke-linecap="round" fill="none"/>
  <circle cx="23.0" cy="10.5" r="6.4" fill="#9db29e"/>
  <path d="M16.6 9.7 a6.4 6.4 0 0 1 12.8 0 z" fill="#3c4038"/>
  <circle cx="20.6" cy="12.1" r="0.95" fill="#2b2118"/>
  <circle cx="25.4" cy="12.1" r="0.95" fill="#2b2118"/>
  <rect x="1.0" y="26.0" width="13" height="5" fill="#565543"/>
  <rect x="32.0" y="26.0" width="13" height="5" fill="#6f6e5a"/>
  <rect x="-1.0" y="25.4" width="4" height="6.2" fill="#9db29e"/>
  <rect x="43.0" y="25.4" width="4" height="6.2" fill="#9db29e"/>
  <rect x="19.4" y="1.6" width="7.2" height="13" fill="#f0dd92"/>
  <g fill="#b03a3a"><rect x="20.8" y="4" width="4.4" height="1.3"/><rect x="20.8" y="6.8" width="4.4" height="1.3"/><rect x="20.8" y="9.6" width="4.4" height="1.3"/></g>
  <path d="M11.0 50l4-6 4 6 4-6 4 6 4-6 3.4 6z" fill="#565543"/>
</svg>
