<svg xmlns="http://www.w3.org/2000/svg" viewBox="0 0 32 40" width="32" height="40" shape-rendering="crispEdges">
<rect x="12" y="0" width="2" height="2" fill="#f0e0a8" fill-opacity="0.16"/>
<rect x="16" y="0" width="2" height="2" fill="#f0e0a8" fill-opacity="0.16"/>
<rect x="20" y="0" width="2" height="2" fill="#f0e0a8" fill-opacity="0.16"/>
<rect x="6" y="2" width="2" height="2" fill="#f0e0a8" fill-opacity="0.16"/>
<rect x="22" y="2" width="2" height="2" fill="#f0e0a8" fill-opacity="0.16"/>
<rect x="4" y="4" width="2" height="2" fill="#f0e0a8" fill-opacity="0.16"/>
<rect x="0" y="24" width="2" height="2" fill="#f0e0a8" fill-opacity="0.16"/>
<rect x="28" y="28" width="2" height="2" fill="#f0e0a8" fill-opacity="0.16"/>
<rect x="26" y="30" width="2" height="2" fill="#f0e0a8" fill-opacity="0.16"/>
<rect x="4" y="32" width="2" height="2" fill="#f0e0a8" fill-opacity="0.16"/>
<rect x="8" y="32" width="2" height="2" fill="#f0e0a8" fill-opacity="0.16"/>
<rect x="24" y="32" width="2" height="2" fill="#f0e0a8" fill-opacity="0.16"/>
<rect x="6" y="34" width="2" height="2" fill="#f0e0a8" fill-opacity="0.16"/>
<rect x="10" y="34" width="2" height="2" fill="#f0e0a8" fill-opacity="0.16"/>
<rect x="14" y="34" width="2" height="2" fill="#f0e0a8" fill-opacity="0.16"/>
<rect x="18" y="34" width="2" height="2" fill="#f0e0a8" fill-opacity="0.16"/>
<rect x="22" y="34" width="2" height="2" fill="#f0e0a8" fill-opacity="0.16"/>
<rect x="12" y="36" width="2" height="2" fill="#f0e0a8" fill-opacity="0.16"/>
<rect x="16" y="36" width="2" height="2" fill="#f0e0a8" fill-opacity="0.16"/>
<rect x="20" y="36" width="2" height="2" fill="#f0e0a8" fill-opacity="0.16"/>

<rect x="10" y="2" width="12" height="2" fill="#12141c"/>
<rect x="6" y="4" width="4" height="2" fill="#12141c"/>
<rect x="10" y="4" width="10" height="2" fill="#f0e0a8"/>
<rect x="20" y="4" width="2" height="2" fill="#3a2a48"/>
<rect x="22" y="4" width="4" height="2" fill="#12141c"/>
<rect x="4" y="6" width="2" height="2" fill="#12141c"/>
<rect x="6" y="6" width="16" height="2" fill="#f0e0a8"/>
<rect x="22" y="6" width="4" height="2" fill="#3a2a48"/>
<rect x="26" y="6" width="2" height="2" fill="#12141c"/>
<rect x="2" y="8" width="2" height="2" fill="#12141c"/>
<rect x="4" y="8" width="10" height="2" fill="#f0e0a8"/>
<rect x="14" y="8" width="4" height="2" fill="#3a2a48"/>
<rect x="18" y="8" width="4" height="2" fill="#f0e0a8"/>
<rect x="22" y="8" width="6" height="2" fill="#3a2a48"/>
<rect x="28" y="8" width="2" height="2" fill="#12141c"/>
<rect x="2" y="10" width="2" height="2" fill="#12141c"/>
<rect x="4" y="10" width="10" height="2" fill="#f0e0a8"/>
<rect x="14" y="10" width="4" height="2" fill="#3a2a48"/>
<rect x="18" y="10" width="6" height="2" fill="#f0e0a8"/>
<rect x="24" y="10" width="4" height="2" fill="#3a2a48"/>
<rect x="28" y="10" width="2" height="2" fill="#12141c"/>
<rect x="0" y="12" width="2" height="2" fill="#12141c"/>
<rect x="2" y="12" width="20" height="2" fill="#f0e0a8"/>
<rect x="22" y="12" width="8" height="2" fill="#3a2a48"/>
<rect x="30" y="12" width="2" height="2" fill="#12141c"/>
<rect x="0" y="14" width="2" height="2" fill="#12141c"/>
<rect x="2" y="14" width="20" height="2" fill="#f0e0a8"/>
<rect x="22" y="14" width="8" height="2" fill="#3a2a48"/>
<rect x="30" y="14" width="2" height="2" fill="#12141c"/>
<rect x="0" y="16" width="2" height="2" fill="#12141c"/>
<rect x="2" y="16" width="18" height="2" fill="#f0e0a8"/>
<rect x="20" y="16" width="10" height="2" fill="#3a2a48"/>
<rect x="30" y="16" width="2" height="2" fill="#12141c"/>
<rect x="0" y="18" width="2" height="2" fill="#12141c"/>
<rect x="2" y="18" width="10" height="2" fill="#f0e0a8"/>
<rect x="12" y="18" width="18" height="2" fill="#3a2a48"/>
<rect x="30" y="18" width="2" height="2" fill="#12141c"/>
<rect x="0" y="20" width="2" height="2" fill="#12141c"/>
<rect x="2" y="20" width="8" height="2" fill="#f0e0a8"/>
<rect x="10" y="20" width="20" height="2" fill="#3a2a48"/>
<rect x="30" y="20" width="2" height="2" fill="#12141c"/>
<rect x="0" y="22" width="2" height="2" fill="#12141c"/>
<rect x="2" y="22" width="8" height="2" fill="#f0e0a8"/>
<rect x="10" y="22" width="20" height="2" fill="#3a2a48"/>
<rect x="30" y="22" width="2" height="2" fill="#12141c"/>
<rect x="2" y="24" width="2" height="2" fill="#12141c"/>
<rect x="4" y="24" width="4" height="2" fill="#f0e0a8"/>
<rect x="8" y="24" width="6" height="2" fill="#3a2a48"/>
<rect x="14" y="24" width="4" height="2" fill="#f0e0a8"/>
<rect x="18" y="24" width="10" height="2" fill="#3a2a48"/>
<rect x="28" y="24" width="2" height="2" fill="#12141c"/>
<rect x="2" y="26" width="2" height="2" fill="#12141c"/>
<rect x="4" y="26" width="6" height="2" fill="#f0e0a8"/>
<rect x="10" y="26" width="4" height="2" fill="#3a2a48"/>
<rect x="14" y="26" width="4" height="2" fill="#f0e0a8"/>
<rect x="18" y="26" width="10" height="2" fill="#3a2a48"/>
<rect x="28" y="26" width="2" height="2" fill="#12141c"/>
<rect x="4" y="28" width="2" height="2" fill="#12141c"/>
<rect x="6" y="28" width="4" height="2" fill="#f0e0a8"/>
<rect x="10" y="28" width="16" height="2" fill="#3a2a48"/>
<rect x="26" y="28" width="2" height="2" fill="#12141c"/>
<rect x="6" y="30" width="4" height="2" fill="#12141c"/>
<rect x="10" y="30" width="2" height="2" fill="#f0e0a8"/>
<rect x="12" y="30" width="10" height="2" fill="#3a2a48"/>
<rect x="22" y="30" width="4" height="2" fill="#12141c"/>
<rect x="10" y="32" width="12" height="2" fill="#12141c"/>
</svg>
