<svg xmlns="http://www.w3.org/2000/svg" viewBox="0 0 32 40" width="32" height="40" shape-rendering="crispEdges">
<rect x="12" y="0" width="2" height="2" fill="#d0b0ff" fill-opacity="0.16"/>
<rect x="16" y="0" width="2" height="2" fill="#d0b0ff" fill-opacity="0.16"/>
<rect x="20" y="0" width="2" height="2" fill="#d0b0ff" fill-opacity="0.16"/>
<rect x="6" y="2" width="2" height="2" fill="#d0b0ff" fill-opacity="0.16"/>
<rect x="4" y="4" width="2" height="2" fill="#d0b0ff" fill-opacity="0.16"/>
<rect x="28" y="28" width="2" height="2" fill="#d0b0ff" fill-opacity="0.16"/>
<rect x="26" y="30" width="2" height="2" fill="#d0b0ff" fill-opacity="0.16"/>
<rect x="4" y="32" width="2" height="2" fill="#d0b0ff" fill-opacity="0.16"/>
<rect x="24" y="32" width="2" height="2" fill="#d0b0ff" fill-opacity="0.16"/>
<rect x="6" y="34" width="2" height="2" fill="#d0b0ff" fill-opacity="0.16"/>
<rect x="10" y="34" width="2" height="2" fill="#d0b0ff" fill-opacity="0.16"/>
<rect x="14" y="34" width="2" height="2" fill="#d0b0ff" fill-opacity="0.16"/>
<rect x="18" y="34" width="2" height="2" fill="#d0b0ff" fill-opacity="0.16"/>
<rect x="22" y="34" width="2" height="2" fill="#d0b0ff" fill-opacity="0.16"/>
<rect x="12" y="36" width="2" height="2" fill="#d0b0ff" fill-opacity="0.16"/>
<rect x="16" y="36" width="2" height="2" fill="#d0b0ff" fill-opacity="0.16"/>
<rect x="20" y="36" width="2" height="2" fill="#d0b0ff" fill-opacity="0.16"/>

<rect x="8" y="2" width="16" height="2" fill="#12141c"/>
<rect x="6" y="4" width="2" height="2" fill="#12141c"/>
<rect x="8" y="4" width="16" height="2" fill="#d0b0ff"/>
<rect x="24" y="4" width="2" height="2" fill="#12141c"/>
<rect x="4" y="6" width="2" height="2" fill="#12141c"/>
<rect x="6" y="6" width="4" height="2" fill="#d0b0ff"/>
<rect x="10" y="6" width="8" height="2" fill="#4a2a7a"/>
<rect x="18" y="6" width="4" height="2" fill="#fff6a8"/>
<rect x="22" y="6" width="4" height="2" fill="#d0b0ff"/>
<rect x="26" y="6" width="2" height="2" fill="#12141c"/>
<rect x="2" y="8" width="2" height="2" fill="#12141c"/>
<rect x="4" y="8" width="4" height="2" fill="#d0b0ff"/>
<rect x="8" y="8" width="8" height="2" fill="#4a2a7a"/>
<rect x="16" y="8" width="4" height="2" fill="#fff6a8"/>
<rect x="20" y="8" width="4" height="2" fill="#4a2a7a"/>
<rect x="24" y="8" width="4" height="2" fill="#d0b0ff"/>
<rect x="28" y="8" width="2" height="2" fill="#12141c"/>
<rect x="0" y="10" width="2" height="2" fill="#12141c"/>
<rect x="2" y="10" width="4" height="2" fill="#d0b0ff"/>
<rect x="6" y="10" width="10" height="2" fill="#4a2a7a"/>
<rect x="16" y="10" width="4" height="2" fill="#fff6a8"/>
<rect x="20" y="10" width="6" height="2" fill="#4a2a7a"/>
<rect x="26" y="10" width="4" height="2" fill="#d0b0ff"/>
<rect x="30" y="10" width="2" height="2" fill="#12141c"/>
<rect x="0" y="12" width="2" height="2" fill="#12141c"/>
<rect x="2" y="12" width="2" height="2" fill="#d0b0ff"/>
<rect x="4" y="12" width="10" height="2" fill="#4a2a7a"/>
<rect x="14" y="12" width="4" height="2" fill="#fff6a8"/>
<rect x="18" y="12" width="10" height="2" fill="#4a2a7a"/>
<rect x="28" y="12" width="2" height="2" fill="#d0b0ff"/>
<rect x="30" y="12" width="2" height="2" fill="#12141c"/>
<rect x="0" y="14" width="2" height="2" fill="#12141c"/>
<rect x="2" y="14" width="2" height="2" fill="#d0b0ff"/>
<rect x="4" y="14" width="10" height="2" fill="#4a2a7a"/>
<rect x="14" y="14" width="4" height="2" fill="#fff6a8"/>
<rect x="18" y="14" width="10" height="2" fill="#4a2a7a"/>
<rect x="28" y="14" width="2" height="2" fill="#d0b0ff"/>
<rect x="30" y="14" width="2" height="2" fill="#12141c"/>
<rect x="0" y="16" width="2" height="2" fill="#12141c"/>
<rect x="2" y="16" width="2" height="2" fill="#d0b0ff"/>
<rect x="4" y="16" width="8" height="2" fill="#4a2a7a"/>
<rect x="12" y="16" width="4" height="2" fill="#fff6a8"/>
<rect x="16" y="16" width="12" height="2" fill="#4a2a7a"/>
<rect x="28" y="16" width="2" height="2" fill="#d0b0ff"/>
<rect x="30" y="16" width="2" height="2" fill="#12141c"/>
<rect x="0" y="18" width="2" height="2" fill="#12141c"/>
<rect x="2" y="18" width="2" height="2" fill="#d0b0ff"/>
<rect x="4" y="18" width="10" height="2" fill="#4a2a7a"/>
<rect x="14" y="18" width="8" height="2" fill="#fff6a8"/>
<rect x="22" y="18" width="6" height="2" fill="#4a2a7a"/>
<rect x="28" y="18" width="2" height="2" fill="#d0b0ff"/>
<rect x="30" y="18" width="2" height="2" fill="#12141c"/>
<rect x="0" y="20" width="2" height="2" fill="#12141c"/>
<rect x="2" y="20" width="2" height="2" fill="#d0b0ff"/>
<rect x="4" y="20" width="14" height="2" fill="#4a2a7a"/>
<rect x="18" y="20" width="4" height="2" fill="#fff6a8"/>
<rect x="22" y="20" width="6" height="2" fill="#4a2a7a"/>
<rect x="28" y="20" width="2" height="2" fill="#d0b0ff"/>
<rect x="30" y="20" width="2" height="2" fill="#12141c"/>
<rect x="0" y="22" width="2" height="2" fill="#12141c"/>
<rect x="2" y="22" width="2" height="2" fill="#d0b0ff"/>
<rect x="4" y="22" width="12" height="2" fill="#4a2a7a"/>
<rect x="16" y="22" width="4" height="2" fill="#fff6a8"/>
<rect x="20" y="22" width="8" height="2" fill="#4a2a7a"/>
<rect x="28" y="22" width="2" height="2" fill="#d0b0ff"/>
<rect x="30" y="22" width="2" height="2" fill="#12141c"/>
<rect x="0" y="24" width="2" height="2" fill="#12141c"/>
<rect x="2" y="24" width="4" height="2" fill="#d0b0ff"/>
<rect x="6" y="24" width="10" height="2" fill="#4a2a7a"/>
<rect x="16" y="24" width="4" height="2" fill="#fff6a8"/>
<rect x="20" y="24" width="6" height="2" fill="#4a2a7a"/>
<rect x="26" y="24" width="4" height="2" fill="#d0b0ff"/>
<rect x="30" y="24" width="2" height="2" fill="#12141c"/>
<rect x="2" y="26" width="2" height="2" fill="#12141c"/>
<rect x="4" y="26" width="4" height="2" fill="#d0b0ff"/>
<rect x="8" y="26" width="6" height="2" fill="#4a2a7a"/>
<rect x="14" y="26" width="4" height="2" fill="#fff6a8"/>
<rect x="18" y="26" width="6" height="2" fill="#4a2a7a"/>
<rect x="24" y="26" width="4" height="2" fill="#d0b0ff"/>
<rect x="28" y="26" width="2" height="2" fill="#12141c"/>
<rect x="4" y="28" width="2" height="2" fill="#12141c"/>
<rect x="6" y="28" width="4" height="2" fill="#d0b0ff"/>
<rect x="10" y="28" width="4" height="2" fill="#4a2a7a"/>
<rect x="14" y="28" width="4" height="2" fill="#fff6a8"/>
<rect x="18" y="28" width="4" height="2" fill="#4a2a7a"/>
<rect x="22" y="28" width="4" height="2" fill="#d0b0ff"/>
<rect x="26" y="28" width="2" height="2" fill="#12141c"/>
<rect x="6" y="30" width="2" height="2" fill="#12141c"/>
<rect x="8" y="30" width="16" height="2" fill="#d0b0ff"/>
<rect x="24" y="30" width="2" height="2" fill="#12141c"/>
<rect x="8" y="32" width="16" height="2" fill="#12141c"/>
</svg>
