<svg xmlns="http://www.w3.org/2000/svg" viewBox="0 0 32 32" width="32" height="32" shape-rendering="crispEdges">
<rect x="10" y="0" width="12" height="2" fill="#12141c"/>
<rect x="8" y="2" width="2" height="2" fill="#12141c"/>
<rect x="10" y="2" width="12" height="2" fill="#f2e6c4"/>
<rect x="22" y="2" width="2" height="2" fill="#12141c"/>
<rect x="6" y="4" width="2" height="2" fill="#12141c"/>
<rect x="8" y="4" width="4" height="2" fill="#f2e6c4"/>
<rect x="12" y="4" width="8" height="2" fill="#2a1e14"/>
<rect x="20" y="4" width="4" height="2" fill="#f2e6c4"/>
<rect x="24" y="4" width="2" height="2" fill="#12141c"/>
<rect x="4" y="6" width="2" height="2" fill="#12141c"/>
<rect x="6" y="6" width="4" height="2" fill="#f2e6c4"/>
<rect x="10" y="6" width="2" height="2" fill="#2a1e14"/>
<rect x="12" y="6" width="8" height="2" fill="#f2e6c4"/>
<rect x="20" y="6" width="2" height="2" fill="#2a1e14"/>
<rect x="22" y="6" width="4" height="2" fill="#f2e6c4"/>
<rect x="26" y="6" width="2" height="2" fill="#12141c"/>
<rect x="4" y="8" width="2" height="2" fill="#12141c"/>
<rect x="6" y="8" width="14" height="2" fill="#f2e6c4"/>
<rect x="20" y="8" width="2" height="2" fill="#2a1e14"/>
<rect x="22" y="8" width="4" height="2" fill="#f2e6c4"/>
<rect x="26" y="8" width="2" height="2" fill="#12141c"/>
<rect x="4" y="10" width="2" height="2" fill="#12141c"/>
<rect x="6" y="10" width="12" height="2" fill="#f2e6c4"/>
<rect x="18" y="10" width="2" height="2" fill="#2a1e14"/>
<rect x="20" y="10" width="6" height="2" fill="#f2e6c4"/>
<rect x="26" y="10" width="2" height="2" fill="#12141c"/>
<rect x="6" y="12" width="2" height="2" fill="#12141c"/>
<rect x="8" y="12" width="8" height="2" fill="#f2e6c4"/>
<rect x="16" y="12" width="2" height="2" fill="#2a1e14"/>
<rect x="18" y="12" width="6" height="2" fill="#f2e6c4"/>
<rect x="24" y="12" width="2" height="2" fill="#12141c"/>
<rect x="8" y="14" width="2" height="2" fill="#12141c"/>
<rect x="10" y="14" width="6" height="2" fill="#f2e6c4"/>
<rect x="16" y="14" width="2" height="2" fill="#2a1e14"/>
<rect x="18" y="14" width="4" height="2" fill="#f2e6c4"/>
<rect x="22" y="14" width="2" height="2" fill="#12141c"/>
<rect x="10" y="16" width="2" height="2" fill="#12141c"/>
<rect x="12" y="16" width="2" height="2" fill="#f2e6c4"/>
<rect x="14" y="16" width="2" height="2" fill="#2a1e14"/>
<rect x="16" y="16" width="4" height="2" fill="#f2e6c4"/>
<rect x="20" y="16" width="2" height="2" fill="#12141c"/>
<rect x="10" y="18" width="2" height="2" fill="#12141c"/>
<rect x="12" y="18" width="8" height="2" fill="#f2e6c4"/>
<rect x="20" y="18" width="2" height="2" fill="#12141c"/>
<rect x="10" y="20" width="2" height="2" fill="#12141c"/>
<rect x="12" y="20" width="2" height="2" fill="#f2e6c4"/>
<rect x="14" y="20" width="2" height="2" fill="#2a1e14"/>
<rect x="16" y="20" width="4" height="2" fill="#f2e6c4"/>
<rect x="20" y="20" width="2" height="2" fill="#12141c"/>
<rect x="10" y="22" width="2" height="2" fill="#12141c"/>
<rect x="12" y="22" width="8" height="2" fill="#f2e6c4"/>
<rect x="20" y="22" width="2" height="2" fill="#12141c"/>
<rect x="8" y="24" width="2" height="2" fill="#12141c"/>
<rect x="10" y="24" width="12" height="2" fill="#f0c95a"/>
<rect x="22" y="24" width="2" height="2" fill="#12141c"/>
<rect x="10" y="26" width="12" height="2" fill="#12141c"/>
</svg>
